<svg width="160" height="161" viewBox="0 0 160 161" fill="none" xmlns="http://www.w3.org/2000/svg">
<path fill-rule="evenodd" clip-rule="evenodd" d="M0 0.734863H8.33333V9.0682H0V0.734863ZM21.6667 0.734863H30V9.0682H21.6667V0.734863ZM51.6667 0.734863H43.3333V9.0682H51.6667V0.734863ZM65 0.734863H73.3333V9.0682H65V0.734863ZM95 0.734863H86.6667V9.0682H95V0.734863ZM108.333 0.734863H116.667V9.0682H108.333V0.734863ZM138.333 0.734863H130V9.0682H138.333V0.734863ZM151.667 0.734863H160V9.0682H151.667V0.734863ZM8.33333 22.4015H0V30.7349H8.33333V22.4015ZM30 22.4015H21.6667V30.7349H30V22.4015ZM43.3333 22.4015H51.6667V30.7349H43.3333V22.4015ZM73.3333 22.4015H65V30.7349H73.3333V22.4015ZM86.6667 22.4015H95V30.7349H86.6667V22.4015ZM116.667 22.4015H108.333V30.7349H116.667V22.4015ZM130 22.4015H138.333V30.7349H130V22.4015ZM160 22.4015H151.667V30.7349H160V22.4015ZM21.6667 44.0682H30V52.4015H21.6667V44.0682ZM0 44.0685H8.33333V52.4019H0V44.0685ZM51.6667 44.0682H43.3333V52.4015H51.6667V44.0682ZM65 44.0682H73.3333V52.4015H65V44.0682ZM95 44.0682H86.6667V52.4015H95V44.0682ZM108.333 44.0682H116.667V52.4015H108.333V44.0682ZM138.333 44.0682H130V52.4015H138.333V44.0682ZM151.667 44.0682H160V52.4015H151.667V44.0682ZM8.33333 65.7349H0V74.0682H8.33333V65.7349ZM30 65.7349H21.6667V74.0682H30V65.7349ZM43.3333 65.7349H51.6667V74.0682H43.3333V65.7349ZM73.3333 65.7349H65V74.0682H73.3333V65.7349ZM86.6667 65.7349H95V74.0682H86.6667V65.7349ZM116.667 65.7349H108.333V74.0682H116.667V65.7349ZM130 65.7349H138.333V74.0682H130V65.7349ZM160 65.7349H151.667V74.0682H160V65.7349ZM0 87.4015H8.33333V95.7349H0V87.4015ZM21.6667 87.4015H30V95.7349H21.6667V87.4015ZM51.6667 87.4015H43.3333V95.7349H51.6667V87.4015ZM65 87.4015H73.3333V95.7349H65V87.4015ZM95 87.4015H86.6667V95.7349H95V87.4015ZM108.333 87.4015H116.667V95.7349H108.333V87.4015ZM138.333 87.4015H130V95.7349H138.333V87.4015ZM151.667 87.4015H160V95.7349H151.667V87.4015ZM30 109.068H21.6667V117.402H30V109.068ZM8.33333 109.069H0V117.402H8.33333V109.069ZM43.3333 109.068H51.6667V117.402H43.3333V109.068ZM73.3333 109.068H65V117.402H73.3333V109.068ZM86.6667 109.068H95V117.402H86.6667V109.068ZM116.667 109.068H108.333V117.402H116.667V109.068ZM130 109.068H138.333V117.402H130V109.068ZM160 109.068H151.667V117.402H160V109.068ZM0 130.735H8.33333V139.068H0V130.735ZM21.6667 130.735H30V139.068H21.6667V130.735ZM51.6667 130.735H43.3333V139.068H51.6667V130.735ZM65 130.735H73.3333V139.068H65V130.735ZM95 130.735H86.6667V139.068H95V130.735ZM108.333 130.735H116.667V139.068H108.333V130.735ZM138.333 130.735H130V139.068H138.333V130.735ZM151.667 130.735H160V139.068H151.667V130.735ZM0 152.402H8.33333V160.735H0V152.402ZM21.6667 152.402H30V160.735H21.6667V152.402ZM51.6667 152.402H43.3333V160.735H51.6667V152.402ZM65 152.402H73.3333V160.735H65V152.402ZM95 152.402H86.6667V160.735H95V152.402ZM108.333 152.402H116.667V160.735H108.333V152.402ZM138.333 152.402H130V160.735H138.333V152.402ZM151.667 152.402H160V160.735H151.667V152.402Z" fill="#F4F4F4"/>
</svg>
