<svg width="60" height="60" viewBox="0 0 60 60" fill="none" xmlns="http://www.w3.org/2000/svg">
<path fill-rule="evenodd" clip-rule="evenodd" d="M31.3744 0.437847C30.4869 0.113168 29.5132 0.113166 28.6257 0.437841L9.15628 7.56074L9.15627 7.56071L9.14874 7.56354C9.02012 7.61177 8.89205 7.65949 8.76478 7.70692L8.76468 7.70696C7.93172 8.01736 7.13312 8.31496 6.43924 8.65825C5.62053 9.0633 4.87044 9.56663 4.27748 10.3177C3.09003 11.8218 2.75003 14.0378 3.0024 17.5711C3.01603 17.7619 3.03035 17.991 3.04688 18.2557C3.22414 21.0936 3.65667 28.0183 6.23693 35.5789C9.05948 43.8495 14.4826 52.9745 25.0292 58.3823C27.4272 59.7113 29.3865 60.0231 31.0667 59.804C32.5483 59.6107 33.7433 59.0044 34.6624 58.5381L34.6625 58.5381L34.6626 58.538C34.7606 58.4883 34.8554 58.4402 34.9472 58.3943L34.9472 58.3943L34.9558 58.3899C45.5121 52.983 50.939 43.8534 53.7629 35.5789C56.3431 28.0184 56.7757 21.0937 56.9529 18.2558V18.2557C56.9695 17.991 56.9838 17.7619 56.9974 17.5711C57.2498 14.0378 56.9098 11.8218 55.7223 10.3177C55.1294 9.56663 54.3793 9.0633 53.5606 8.65825C52.8667 8.31496 52.0681 8.01736 51.2351 7.70696C51.1078 7.65952 50.9797 7.61178 50.8511 7.56354L50.8511 7.56351L50.8435 7.56074L31.3744 0.437847ZM29.3129 2.31609C29.7566 2.15375 30.2435 2.15375 30.6872 2.31609L50.1488 9.4362L50.1526 9.4376C50.2867 9.48791 50.4172 9.53658 50.5441 9.58395C51.3896 9.89943 52.0793 10.1568 52.6737 10.4509C53.3394 10.7802 53.808 11.1206 54.1526 11.557C54.8401 12.4279 55.2501 13.9619 55.0025 17.4286C54.9885 17.6245 54.9739 17.8571 54.9571 18.1237C54.779 20.9591 54.3595 27.6386 51.8701 34.933C49.15 42.9033 43.9892 51.5143 34.0482 56.6077C33.9559 56.6539 33.8642 56.7001 33.773 56.7461L33.7729 56.7461C32.8305 57.2214 31.9328 57.6741 30.8081 57.8208C29.6168 57.9762 28.0807 57.7897 25.9855 56.6257L25.9708 56.6175L25.9557 56.6098C16.012 51.5167 10.8502 42.9044 8.12974 34.933C5.64034 27.6386 5.22077 20.959 5.04267 18.1237C5.02593 17.8571 5.01132 17.6245 4.99732 17.4286C4.7497 13.9619 5.1597 12.4279 5.84725 11.557C6.19178 11.1206 6.66045 10.7802 7.32611 10.4509C7.92049 10.1568 8.61022 9.89943 9.45567 9.58396L9.45567 9.58396C9.58259 9.5366 9.71301 9.48793 9.84715 9.43763L29.3129 2.31609ZM31.3587 6.42726C30.4808 6.11022 29.5196 6.11021 28.6416 6.42725L13.1506 12.0211L13.1506 12.0211L13.1432 12.0239C13.0403 12.0619 12.9376 12.0997 12.8353 12.1374L12.8351 12.1374C12.1654 12.3837 11.512 12.624 10.9437 12.9015C10.2703 13.2303 9.63839 13.6461 9.13561 14.2747C8.12639 15.5364 7.8596 17.3711 8.06346 20.1881C8.07398 20.3335 8.0852 20.5105 8.09826 20.7164C8.14731 21.49 8.22218 22.6709 8.38258 24.1106C8.44373 24.6595 8.93827 25.0549 9.48716 24.9937C10.036 24.9326 10.4314 24.438 10.3703 23.8891C10.2159 22.5036 10.1451 21.3885 10.0958 20.6122L10.0958 20.6122C10.082 20.3959 10.07 20.2059 10.0582 20.0437C9.85942 17.2963 10.1966 16.1501 10.6975 15.5239C10.9497 15.2086 11.2993 14.9536 11.8213 14.6987C12.2907 14.4695 12.836 14.2686 13.5183 14.0173C13.6203 13.9797 13.7254 13.941 13.8337 13.9009L29.3209 8.30836C29.7598 8.14984 30.2404 8.14985 30.6794 8.30837L46.1627 13.8995L46.1665 13.9009C46.2748 13.941 46.3798 13.9797 46.4818 14.0173L46.4819 14.0173C47.1641 14.2686 47.7094 14.4695 48.1787 14.6987C48.7008 14.9536 49.0504 15.2086 49.3026 15.5239C49.8034 16.1501 50.1407 17.2963 49.9418 20.0437C49.9306 20.1986 49.9189 20.3815 49.9055 20.5903C49.6748 24.1902 48.9496 35.5043 41.8395 44.1032C41.4876 44.5289 41.5473 45.1592 41.9729 45.5111C42.3986 45.8631 43.0289 45.8033 43.3808 45.3777C50.926 36.2525 51.6749 24.3306 51.9007 20.7371L51.9008 20.7357C51.9141 20.5232 51.9256 20.3399 51.9366 20.1881C52.1405 17.3711 51.8737 15.5364 50.8645 14.2747C50.3617 13.6461 49.7297 13.2303 49.0564 12.9015C48.4881 12.624 47.8347 12.3837 47.1649 12.1374C47.095 12.1117 47.025 12.0859 46.9548 12.06C46.9222 12.048 46.8896 12.036 46.8569 12.0239L46.8569 12.0238L46.8494 12.0211L31.3587 6.42726ZM18.4999 29.4999C18.4999 23.2014 23.5943 18.4999 29.9999 18.4999C36.4055 18.4999 41.4999 23.2014 41.4999 29.4999C41.4999 35.8511 36.3512 40.9999 29.9999 40.9999C23.6487 40.9999 18.4999 35.8511 18.4999 29.4999ZM29.9999 16.4999C22.5984 16.4999 16.4999 21.9912 16.4999 29.4999C16.4999 36.9557 22.5441 42.9999 29.9999 42.9999C37.4558 42.9999 43.4999 36.9557 43.4999 29.4999C43.4999 21.9912 37.4015 16.4999 29.9999 16.4999ZM37.1747 23.7603C35.9723 22.558 34.012 22.5942 32.855 23.8403L28.4212 28.6152L27.1693 27.5422C25.9114 26.4639 24.0175 26.6096 22.9392 27.8676L22.5424 28.3306C21.4641 29.5885 21.6098 31.4824 22.8678 32.5607L26.9065 36.0225C28.1192 37.0619 29.9337 36.9689 31.0338 35.8109L37.8824 28.6019C39.0029 27.4224 38.9791 25.5647 37.8287 24.4143L37.1747 23.7603ZM34.3206 25.2012C34.7063 24.7858 35.3597 24.7737 35.7605 25.1745L36.4145 25.8286C36.798 26.212 36.8059 26.8312 36.4324 27.2244L29.5838 34.4334C29.2171 34.8194 28.6123 34.8504 28.208 34.5039L24.1693 31.0422C23.75 30.6828 23.7015 30.0515 24.0609 29.6321L24.4577 29.1692C24.8171 28.7498 25.4484 28.7013 25.8678 29.0607L27.1196 30.1337C27.9348 30.8324 29.1562 30.7629 29.8868 29.9761L34.3206 25.2012ZM11.8848 31.7261C11.7336 31.1949 11.1804 30.8869 10.6492 31.0381C10.118 31.1893 9.80999 31.7425 9.96121 32.2737C11.9955 39.4195 16.359 47.9623 25.91 52.7973C27.8695 53.8686 29.4858 54.1273 30.8827 53.9475C32.1091 53.7896 33.0992 53.2934 33.8381 52.9231L33.8383 52.923C33.9173 52.8834 33.9935 52.8452 34.0667 52.8091L34.0667 52.8091L34.0753 52.8048C35.5276 52.0705 36.862 51.2494 38.0878 50.3588C38.5346 50.0342 38.6337 49.4088 38.3091 48.962C37.9844 48.5152 37.3591 48.4161 36.9123 48.7408C35.7734 49.5682 34.5317 50.3327 33.1771 51.0178C33.1034 51.0542 33.0305 51.0905 32.9581 51.1264C32.1961 51.5055 31.5006 51.8514 30.6274 51.9638C29.7125 52.0816 28.5146 51.9446 26.8567 51.0355L26.842 51.0274L26.8271 51.0199C17.9522 46.5331 13.8366 38.5821 11.8848 31.7261ZM10.5002 28.9998C10.3143 29.1858 10.0563 29.2928 9.79325 29.2928C9.53025 29.2928 9.27225 29.1858 9.08625 28.9998C8.90015 28.8138 8.79325 28.5558 8.79325 28.2928C8.79325 28.0288 8.90025 27.7718 9.08625 27.5858C9.27225 27.3988 9.53025 27.2928 9.79325 27.2928C10.0563 27.2928 10.3143 27.3988 10.5002 27.5858C10.6863 27.7718 10.7933 28.0288 10.7933 28.2928C10.7933 28.5558 10.6862 28.8138 10.5002 28.9998ZM40.9139 47.9999C40.728 48.1859 40.47 48.2929 40.207 48.2929C39.944 48.2929 39.686 48.1859 39.5 47.9999C39.3139 47.8139 39.207 47.5559 39.207 47.2929C39.207 47.0289 39.314 46.7719 39.5 46.5859C39.686 46.3989 39.944 46.2929 40.207 46.2929C40.47 46.2929 40.728 46.3989 40.9139 46.5859C41.1 46.7719 41.207 47.0289 41.207 47.2929C41.207 47.5559 41.0999 47.8139 40.9139 47.9999Z" fill="#202020"/>
</svg>
