<svg width="162" height="202" viewBox="0 0 162 202" fill="none" xmlns="http://www.w3.org/2000/svg">
<g filter="url(#filter0_d_17_18)">
<path d="M136.846 120.782C150.897 117.145 148.087 98.9657 133.098 98.9657H89.0694M136.846 120.782H104.058M136.846 120.782C140.593 127.144 140.593 138.052 131.225 143.507M81.5752 98.9657H89.0694M97.5005 165.323H123.73M123.73 165.323C134.972 162.595 135.909 148.96 131.225 143.507M123.73 165.323C124.043 170.474 122.789 182.14 108.742 184.411C97.5005 186.229 58.1555 186.229 45.0406 178.958M131.225 143.507H101.248M45.0406 178.958C41.7758 177.148 40.3566 171.685 41.2935 167.141M45.0406 178.958H34.7357C24.3883 178.958 16 170.818 16 160.778V122.6C16 112.559 24.3883 104.42 34.7357 104.42L49.123 104.419M44.1038 112.601C45.4854 110.111 47.2214 107.317 49.123 104.419M89.0694 98.9657C96.5637 85.3313 96.0058 69.1627 91.8798 57.1515C86.2591 40.7891 70.3337 38.0632 72.2073 51.6978C73.7033 62.585 72.2073 69.8772 67.5234 78.0582C65.6924 81.2562 56.2466 93.564 49.123 104.419M82.5117 32.6081V16.2461M54.4082 58.0602H37.546M124.667 58.0602H107.805M61.9024 39.8801L48.7875 30.7901M114.362 30.7901L101.247 39.8801" stroke="#F98C37" stroke-width="2" stroke-linecap="round"/>
</g>
<defs>
<filter id="filter0_d_17_18" x="0" y="0.246094" width="162" height="201.175" filterUnits="userSpaceOnUse" color-interpolation-filters="sRGB">
<feFlood flood-opacity="0" result="BackgroundImageFix"/>
<feColorMatrix in="SourceAlpha" type="matrix" values="0 0 0 0 0 0 0 0 0 0 0 0 0 0 0 0 0 0 127 0" result="hardAlpha"/>
<feOffset/>
<feGaussianBlur stdDeviation="7.5"/>
<feColorMatrix type="matrix" values="0 0 0 0 0.984314 0 0 0 0 0.894118 0 0 0 0 0.2 0 0 0 0.3 0"/>
<feBlend mode="normal" in2="BackgroundImageFix" result="effect1_dropShadow_17_18"/>
<feBlend mode="normal" in="SourceGraphic" in2="effect1_dropShadow_17_18" result="shape"/>
</filter>
</defs>
</svg>
