<svg width="60" height="60" viewBox="0 0 60 60" fill="none" xmlns="http://www.w3.org/2000/svg">
<g clip-path="url(#clip0_1_11607)">
<path fill-rule="evenodd" clip-rule="evenodd" d="M10.5814 2.81448C11.3616 2.25705 11.9662 2.04509 12.4474 2.01398C12.9108 1.98402 13.3687 2.11448 13.8829 2.45728C14.4153 2.81213 14.981 3.37767 15.6184 4.17257C16.2524 4.9632 16.9188 5.93081 17.6681 7.05476C18.0833 7.67759 18.4906 8.26944 18.8806 8.83605L18.8806 8.83608C20.0404 10.521 21.0465 11.9828 21.6491 13.3726C22.0389 14.2716 22.2144 15.0505 22.1678 15.7528C22.1228 16.4333 21.8644 17.1222 21.2408 17.8498C20.9152 18.2298 20.5653 18.5803 20.2009 18.9152L9.8367 3.37485C10.1104 3.15974 10.3611 2.97192 10.5814 2.81448ZM8.29912 4.67396L18.6675 20.2206C18.2298 20.5816 17.7899 20.9496 17.4019 21.3181C16.7956 21.8938 16.2236 22.5524 15.8665 23.3566C15.1029 25.0767 15.4877 27.0347 17.1681 29.5552C21.2478 35.6748 26.3722 40.3046 31.5529 42.895C33.7329 43.985 35.3099 44.4979 36.8163 43.8597C37.5231 43.5603 38.1204 43.0438 38.7021 42.4543C39.0651 42.0864 39.4701 41.6379 39.9177 41.1424L40.121 40.9174L55.3966 52.6027C55.2607 52.7271 55.1174 52.8532 54.9663 52.9809C52.7589 54.8464 50.1354 56.8433 47.2868 57.5233C43.2261 58.3294 38.2218 57.1813 32.9515 54.573C27.6964 51.9722 22.2965 47.9776 17.5128 43.2865C12.7293 38.5956 8.59579 33.2413 5.84878 27.9462C3.09215 22.6326 1.78599 17.4854 2.48735 13.1606C2.748 11.5533 3.7198 9.80918 5.0243 8.14418C6.04226 6.84489 7.21891 5.64898 8.29912 4.67396ZM56.7423 51.114L41.4866 39.444C41.7135 39.2072 41.9531 38.9617 42.2072 38.7076C43.1555 37.7593 43.8832 37.2979 44.4755 37.1148C45.0241 36.9452 45.5424 36.9876 46.1655 37.2581C46.8282 37.5459 47.5747 38.0777 48.5251 38.8701C49.0511 39.3088 49.5927 39.786 50.1925 40.3146L50.1927 40.3147C50.6955 40.7578 51.2393 41.237 51.8493 41.7598C52.2053 42.065 52.5906 42.3801 52.978 42.697L52.9782 42.6972L53.1739 42.8574C53.6312 43.232 54.0916 43.6123 54.5385 44.0053C55.4388 44.797 56.2405 45.6035 56.8025 46.4421C57.3597 47.2734 57.6446 48.0809 57.6042 48.8995C57.5728 49.5369 57.3398 50.272 56.7423 51.114ZM19.3321 5.94535C18.5814 4.8193 17.8728 3.78693 17.1787 2.92136C16.488 2.06005 15.7724 1.31316 14.9922 0.79312C14.194 0.261038 13.3081 -0.0458491 12.3184 0.0181425C11.3465 0.0809809 10.3886 0.49427 9.41876 1.18716C8.97546 1.50388 8.4407 1.91718 7.8571 2.40715C6.50277 3.5442 4.84966 5.12418 3.44996 6.91071C2.06357 8.68024 0.853182 10.7435 0.513138 12.8404C-0.285568 17.7655 1.22073 23.3684 4.07346 28.8672C6.9358 34.3846 11.2085 39.9054 16.1125 44.7145C21.0163 49.5234 26.5852 53.6538 32.0644 56.3655C37.521 59.066 43.01 60.4183 47.6963 59.4811L47.7135 59.4776L47.7306 59.4736C51.0986 58.676 54.0515 56.3727 56.2573 54.5085C56.7894 54.0588 57.2531 53.6124 57.6521 53.1684C58.9046 51.7746 59.5335 50.3844 59.6018 48.9979C59.6698 47.6178 59.1748 46.3892 58.4639 45.3286C57.7579 44.2752 56.8035 43.3338 55.8593 42.5035C55.384 42.0855 54.9002 41.6861 54.4412 41.3102L54.2418 41.1469C53.8531 40.829 53.4881 40.5303 53.1509 40.2413C52.5955 39.7652 52.0596 39.2935 51.5515 38.8462L51.5514 38.8462C50.9215 38.2916 50.3343 37.7747 49.8059 37.3341C48.8347 36.5242 47.9039 35.8326 46.9621 35.4236C45.9806 34.9974 44.967 34.8695 43.8849 35.204C42.8466 35.5249 41.8447 36.2418 40.793 37.2934C40.2161 37.8703 39.7123 38.403 39.265 38.888C38.9376 39.243 38.6489 39.5629 38.3865 39.8536C37.9666 40.3188 37.6142 40.7093 37.2785 41.0495C36.7421 41.5931 36.3699 41.8768 36.0361 42.0182C35.4615 42.2616 34.6734 42.2192 32.4473 41.1061C27.628 38.6964 22.7524 34.3262 18.8322 28.4458C17.3128 26.1668 17.338 24.971 17.6945 24.1682C17.8975 23.7109 18.2555 23.2656 18.7791 22.7684C19.165 22.4019 19.5916 22.0507 20.0681 21.6585C20.2518 21.5073 20.443 21.3499 20.642 21.1833C21.3347 20.6033 22.0801 19.9439 22.7594 19.1513C23.6358 18.1286 24.0871 17.038 24.1635 15.885C24.2384 14.7537 23.9471 13.6448 23.484 12.577C22.7967 10.9919 21.6294 9.29741 20.436 7.56516C20.066 7.02813 19.6936 6.48748 19.3321 5.94535ZM13.1644 30.143C12.8443 29.6929 12.22 29.5874 11.7699 29.9074C11.3198 30.2275 11.2143 30.8518 11.5343 31.3019C14.945 36.0991 19.231 40.6879 23.8577 44.5661C24.281 44.9209 24.9117 44.8654 25.2665 44.4421C25.6213 44.0189 25.5658 43.3882 25.1425 43.0334C20.6386 39.258 16.4706 34.7933 13.1644 30.143ZM28.707 47.207C28.5211 47.393 28.2631 47.5 28.0001 47.5C27.7371 47.5 27.4791 47.393 27.2931 47.207C27.107 47.021 27.0001 46.763 27.0001 46.5C27.0001 46.236 27.1071 45.979 27.2931 45.793C27.4791 45.606 27.7371 45.5 28.0001 45.5C28.2631 45.5 28.5211 45.606 28.707 45.793C28.8931 45.979 29.0001 46.236 29.0001 46.5C29.0001 46.763 28.893 47.021 28.707 47.207Z" fill="#202020"/>
</g>
<defs>
<clipPath id="clip0_1_11607">
<rect width="60" height="60" fill="white"/>
</clipPath>
</defs>
</svg>
