<svg width="160" height="160" viewBox="0 0 160 160" fill="none" xmlns="http://www.w3.org/2000/svg">
<path fill-rule="evenodd" clip-rule="evenodd" d="M0 0H8.33333V8.33333H0V0ZM21.6667 0H30V8.33333H21.6667V0ZM51.6667 0H43.3333V8.33333H51.6667V0ZM65 0H73.3333V8.33333H65V0ZM95 0H86.6667V8.33333H95V0ZM108.333 0H116.667V8.33333H108.333V0ZM138.333 0H130V8.33333H138.333V0ZM151.667 0H160V8.33333H151.667V0ZM8.33333 21.6667H0V30H8.33333V21.6667ZM30 21.6667H21.6667V30H30V21.6667ZM43.3333 21.6667H51.6667V30H43.3333V21.6667ZM73.3333 21.6667H65V30H73.3333V21.6667ZM86.6667 21.6667H95V30H86.6667V21.6667ZM116.667 21.6667H108.333V30H116.667V21.6667ZM130 21.6667H138.333V30H130V21.6667ZM160 21.6667H151.667V30H160V21.6667ZM21.6667 43.3333H30V51.6667H21.6667V43.3333ZM0 43.3337H8.33333V51.667H0V43.3337ZM51.6667 43.3333H43.3333V51.6667H51.6667V43.3333ZM65 43.3333H73.3333V51.6667H65V43.3333ZM95 43.3333H86.6667V51.6667H95V43.3333ZM108.333 43.3333H116.667V51.6667H108.333V43.3333ZM138.333 43.3333H130V51.6667H138.333V43.3333ZM151.667 43.3333H160V51.6667H151.667V43.3333ZM8.33333 65H0V73.3333H8.33333V65ZM30 65H21.6667V73.3333H30V65ZM43.3333 65H51.6667V73.3333H43.3333V65ZM73.3333 65H65V73.3333H73.3333V65ZM86.6667 65H95V73.3333H86.6667V65ZM116.667 65H108.333V73.3333H116.667V65ZM130 65H138.333V73.3333H130V65ZM160 65H151.667V73.3333H160V65ZM0 86.6667H8.33333V95H0V86.6667ZM21.6667 86.6667H30V95H21.6667V86.6667ZM51.6667 86.6667H43.3333V95H51.6667V86.6667ZM65 86.6667H73.3333V95H65V86.6667ZM95 86.6667H86.6667V95H95V86.6667ZM108.333 86.6667H116.667V95H108.333V86.6667ZM138.333 86.6667H130V95H138.333V86.6667ZM151.667 86.6667H160V95H151.667V86.6667ZM30 108.333H21.6667V116.667H30V108.333ZM8.33333 108.334H0V116.667H8.33333V108.334ZM43.3333 108.333H51.6667V116.667H43.3333V108.333ZM73.3333 108.333H65V116.667H73.3333V108.333ZM86.6667 108.333H95V116.667H86.6667V108.333ZM116.667 108.333H108.333V116.667H116.667V108.333ZM130 108.333H138.333V116.667H130V108.333ZM160 108.333H151.667V116.667H160V108.333ZM0 130H8.33333V138.333H0V130ZM21.6667 130H30V138.333H21.6667V130ZM51.6667 130H43.3333V138.333H51.6667V130ZM65 130H73.3333V138.333H65V130ZM95 130H86.6667V138.333H95V130ZM108.333 130H116.667V138.333H108.333V130ZM138.333 130H130V138.333H138.333V130ZM151.667 130H160V138.333H151.667V130ZM0 151.667H8.33333V160H0V151.667ZM21.6667 151.667H30V160H21.6667V151.667ZM51.6667 151.667H43.3333V160H51.6667V151.667ZM65 151.667H73.3333V160H65V151.667ZM95 151.667H86.6667V160H95V151.667ZM108.333 151.667H116.667V160H108.333V151.667ZM138.333 151.667H130V160H138.333V151.667ZM151.667 151.667H160V160H151.667V151.667Z" fill="#F4F4F4"/>
</svg>
