<svg width="140" height="122" viewBox="0 0 140 122" fill="none" xmlns="http://www.w3.org/2000/svg">
<path d="M2.67041 10.0247V24.7142L5.94499 25.8739L80.8511 112.851L90.2656 115.557M2.67041 10.0247L50.5612 3.45312L59.5663 6.54565M2.67041 10.0247L10.8569 12.7307M90.2656 115.557L138.975 108.986V99.3215M90.2656 115.557V105.507M138.975 99.3215L129.97 96.6155M138.975 99.3215L90.2656 105.507M129.97 96.6155V88.8842M129.97 96.6155L82.0791 102.414M129.97 88.8842L121.783 86.1782M129.97 88.8842L82.0791 95.0692M121.783 86.1782V78.8335M121.783 86.1782L72.6647 92.7498M121.783 78.8335L113.188 76.1275M121.783 78.8335L72.6647 85.0185M113.188 76.1275V68.7828M113.188 76.1275L64.0689 82.3126M113.188 68.7828L104.183 65.8277M113.188 68.7828L64.0689 74.5813M104.183 65.8277V58.3455M104.183 65.8277L55.4731 71.8753M104.183 58.3455L94.7681 55.1513M104.183 58.3455L55.4731 64.144M94.7681 55.1513V47.5216M94.7681 55.1513L46.0587 61.0514M94.7681 47.5216L86.5816 45.0369M94.7681 47.5216L46.0587 53.7067M86.5816 45.0369V37.4709M86.5816 45.0369L36.7746 51.3873M86.5816 37.4709L77.1672 34.765M86.5816 37.4709L36.7746 43.656M77.1672 34.765V27.3365M77.1672 34.765L28.7504 40.95M77.1672 27.3365L68.1621 24.3277M77.1672 27.3365L28.8671 33.2187M68.1621 24.3277V16.9829M68.1621 24.3277L19.862 30.5127M68.1621 16.9829L59.5663 13.8904M68.1621 16.9829L19.862 22.7814M59.5663 13.8904V6.54565M59.5663 13.8904L10.8569 20.0755M59.5663 6.54565L10.8569 12.7307M10.8569 12.7307V20.0755M10.8569 20.0755L19.862 22.7814M19.862 22.7814V30.5127M19.862 30.5127L28.8671 33.2187M28.8671 33.2187L28.7504 40.95M28.7504 40.95L36.7746 43.656M36.7746 43.656V51.3873M36.7746 51.3873L46.0587 53.7067M46.0587 53.7067V61.0514M46.0587 61.0514L55.4731 64.144M55.4731 64.144V71.8753M55.4731 71.8753L64.0689 74.5813M64.0689 74.5813V82.3126M64.0689 82.3126L72.6647 85.0185M72.6647 85.0185V92.7498M72.6647 92.7498L82.0791 95.0692M82.0791 95.0692V102.414M82.0791 102.414L90.2656 105.507" stroke="#202020" stroke-width="0.777778"/>
</svg>
